<?xml version="1.0" encoding="UTF-8"?>
<svg width="800" height="800" viewBox="0 0 800 800" xmlns="http://www.w3.org/2000/svg">
  <rect width="800" height="800" fill="white" rx="80" ry="80"/>
  <path d="M400 150C260 150 150 260 150 400C150 540 260 650 400 650C540 650 650 540 650 400C650 260 540 150 400 150ZM400 600C290 600 200 510 200 400C200 290 290 200 400 200C510 200 600 290 600 400C600 510 510 600 400 600Z" fill="#5D5FEF"/>
  <path d="M460 250L250 460C250 460 290 560 400 560C510 560 550 460 550 460L460 250Z" fill="#5D5FEF"/>
  <path d="M400 400L250 460M400 400L460 250M400 400L550 460" stroke="#5D5FEF" stroke-width="25" stroke-linecap="round"/>
  <path d="M350 320L300 370M450 320L500 370" stroke="#5D5FEF" stroke-width="10" stroke-linecap="round"/>
  <path d="M400 150L400 200M400 600L400 650M150 400L200 400M600 400L650 400" stroke="#5D5FEF" stroke-width="10" stroke-linecap="round"/>
</svg>