<?xml version="1.0" encoding="UTF-8"?>
<svg width="800" height="800" viewBox="0 0 800 800" xmlns="http://www.w3.org/2000/svg">
  <rect width="800" height="800" fill="white" rx="80" ry="80"/>
  <rect x="200" y="200" width="160" height="240" rx="10" ry="10" fill="#fff" stroke="#000" stroke-width="5"/>
  <rect x="320" y="230" width="160" height="240" rx="10" ry="10" fill="#fff" stroke="#000" stroke-width="5"/>
  <rect x="440" y="260" width="160" height="240" rx="10" ry="10" fill="#fff" stroke="#000" stroke-width="5"/>
  
  <!-- Spade -->
  <path d="M280,240 C280,290 240,290 240,320 C240,350 300,370 300,370 C300,370 300,335 310,335 C320,335 320,370 320,370 C320,370 380,350 380,320 C380,290 340,290 340,240 Z" fill="#000"/>
  
  <!-- Diamond -->
  <path d="M400,270 L430,320 L400,370 L370,320 Z" fill="#E40000"/>
  
  <!-- Heart -->
  <path d="M520,300 C520,330 490,350 490,370 C510,350 530,350 550,370 C550,350 520,330 520,300 Z" fill="#E40000"/>
  
  <!-- Club -->
  <path d="M240,440 C220,440 220,470 240,470 C220,490 220,520 240,520 C260,520 260,490 240,470 C260,470 260,440 240,440 Z" fill="#000"/>
  
  <!-- King -->
  <text x="510" y="450" font-family="Arial" font-size="60" fill="#E40000">K</text>
  
  <!-- Ace -->
  <text x="380" y="330" font-family="Arial" font-size="60" fill="#E40000">A</text>
</svg>