<svg xmlns="http://www.w3.org/2000/svg" viewBox="0 0 100 100">
  <rect x="10" y="10" width="80" height="80" rx="2" fill="#e0c19e" stroke="#8b4513" stroke-width="4"/>
  <circle cx="50" cy="50" r="33" fill="none" stroke="#8b4513" stroke-width="2"/>
  <circle cx="50" cy="50" r="27" fill="none" stroke="#8b4513" stroke-width="1"/>
  <circle cx="50" cy="50" r="4" fill="#8b4513"/>
  
  <rect x="15" y="15" width="10" height="10" rx="1" fill="#8b4513"/>
  <rect x="75" y="15" width="10" height="10" rx="1" fill="#8b4513"/>
  <rect x="15" y="75" width="10" height="10" rx="1" fill="#8b4513"/>
  <rect x="75" y="75" width="10" height="10" rx="1" fill="#8b4513"/>
  
  <circle cx="30" cy="50" r="3" fill="white" stroke="#000" stroke-width="0.5"/>
  <circle cx="70" cy="50" r="3" fill="white" stroke="#000" stroke-width="0.5"/>
  <circle cx="50" cy="30" r="3" fill="white" stroke="#000" stroke-width="0.5"/>
  <circle cx="50" cy="70" r="3" fill="white" stroke="#000" stroke-width="0.5"/>
  
  <circle cx="35" cy="35" r="3" fill="#000"/>
  <circle cx="65" cy="35" r="3" fill="#000"/>
  <circle cx="35" cy="65" r="3" fill="#000"/>
  <circle cx="65" cy="65" r="3" fill="#000"/>
  
  <circle cx="42" cy="58" r="3" fill="#ff0000"/>
  <circle cx="58" cy="42" r="3" fill="#ff0000"/>
  <circle cx="42" cy="42" r="3" fill="#ff0000"/>
  <circle cx="58" cy="58" r="3" fill="#ff0000"/>
</svg>