<svg xmlns="http://www.w3.org/2000/svg" viewBox="0 0 100 100">
  <rect x="5" y="5" width="90" height="90" rx="4" fill="#f2f2f2" stroke="#333" stroke-width="2"/>
  <rect x="10" y="10" width="35" height="35" rx="2" fill="#ff5252"/>
  <rect x="55" y="10" width="35" height="35" rx="2" fill="#4caf50"/>
  <rect x="10" y="55" width="35" height="35" rx="2" fill="#2196f3"/>
  <rect x="55" y="55" width="35" height="35" rx="2" fill="#ffeb3b"/>
  <path d="M50 10 L50 90" stroke="#333" stroke-width="2"/>
  <path d="M10 50 L90 50" stroke="#333" stroke-width="2"/>
  <circle cx="20" cy="20" r="5" fill="white"/>
  <circle cx="35" cy="20" r="5" fill="white"/>
  <circle cx="20" cy="35" r="5" fill="white"/>
  <circle cx="35" cy="35" r="5" fill="white"/>
  <circle cx="65" cy="20" r="5" fill="white"/>
  <circle cx="80" cy="20" r="5" fill="white"/>
  <circle cx="65" cy="35" r="5" fill="white"/>
  <circle cx="80" cy="35" r="5" fill="white"/>
  <circle cx="20" cy="65" r="5" fill="white"/>
  <circle cx="35" cy="65" r="5" fill="white"/>
  <circle cx="20" cy="80" r="5" fill="white"/>
  <circle cx="35" cy="80" r="5" fill="white"/>
  <circle cx="65" cy="65" r="5" fill="white"/>
  <circle cx="80" cy="65" r="5" fill="white"/>
  <circle cx="65" cy="80" r="5" fill="white"/>
  <circle cx="80" cy="80" r="5" fill="white"/>
</svg>