<svg xmlns="http://www.w3.org/2000/svg" viewBox="0 0 100 100">
  <rect width="100" height="100" fill="#ffffff"/>
  <rect x="10" y="20" width="25" height="35" rx="2" fill="#ffffff" stroke="#333" stroke-width="1.5"/>
  <rect x="15" y="25" width="15" height="25" rx="1" fill="#f44336"/>
  <text x="22.5" y="40" font-family="Arial" font-size="12" fill="#ffffff" text-anchor="middle">A</text>
  
  <rect x="25" y="15" width="25" height="35" rx="2" fill="#ffffff" stroke="#333" stroke-width="1.5"/>
  <rect x="30" y="20" width="15" height="25" rx="1" fill="#000000"/>
  <text x="37.5" y="35" font-family="Arial" font-size="12" fill="#ffffff" text-anchor="middle">K</text>
  
  <rect x="40" y="25" width="25" height="35" rx="2" fill="#ffffff" stroke="#333" stroke-width="1.5"/>
  <rect x="45" y="30" width="15" height="25" rx="1" fill="#4caf50"/>
  <text x="52.5" y="45" font-family="Arial" font-size="12" fill="#ffffff" text-anchor="middle">Q</text>
  
  <rect x="55" y="20" width="25" height="35" rx="2" fill="#ffffff" stroke="#333" stroke-width="1.5"/>
  <rect x="60" y="25" width="15" height="25" rx="1" fill="#2196f3"/>
  <text x="67.5" y="40" font-family="Arial" font-size="12" fill="#ffffff" text-anchor="middle">J</text>
  
  <rect x="70" y="30" width="25" height="35" rx="2" fill="#ffffff" stroke="#333" stroke-width="1.5"/>
  <rect x="75" y="35" width="15" height="25" rx="1" fill="#ff9800"/>
  <text x="82.5" y="50" font-family="Arial" font-size="12" fill="#ffffff" text-anchor="middle">10</text>
  
  <path d="M25 70 H80" stroke="#333" stroke-width="1.5" stroke-dasharray="5,3" />
  <text x="50" y="85" font-family="Arial" font-size="14" font-weight="bold" fill="#333" text-anchor="middle">RUMMY PLUS</text>
</svg>