<svg xmlns="http://www.w3.org/2000/svg" viewBox="0 0 100 100">
  <rect width="100" height="100" fill="#ffffff"/>
  <rect x="15" y="35" width="25" height="40" rx="3" fill="#ffffff" stroke="#333" stroke-width="1.5"/>
  <rect x="20" y="40" width="15" height="30" rx="2" fill="#e91e63"/>
  <path d="M27.5 45 L27.5 65" stroke="#ffffff" stroke-width="1.5"/>
  <path d="M20 55 L35 55" stroke="#ffffff" stroke-width="1.5"/>
  
  <rect x="37.5" y="25" width="25" height="40" rx="3" fill="#ffffff" stroke="#333" stroke-width="1.5"/>
  <rect x="42.5" y="30" width="15" height="30" rx="2" fill="#03a9f4"/>
  <text x="50" y="50" font-family="Arial" font-size="18" font-weight="bold" fill="#ffffff" text-anchor="middle">A</text>
  
  <rect x="60" y="35" width="25" height="40" rx="3" fill="#ffffff" stroke="#333" stroke-width="1.5"/>
  <rect x="65" y="40" width="15" height="30" rx="2" fill="#4caf50"/>
  <text x="72.5" y="60" font-family="Arial" font-size="18" font-weight="bold" fill="#ffffff" text-anchor="middle">K</text>

  <circle cx="27.5" cy="80" r="5" fill="#ffc107" stroke="#e65100" stroke-width="1"/>
  <circle cx="37.5" cy="80" r="5" fill="#ffc107" stroke="#e65100" stroke-width="1"/>
  <circle cx="47.5" cy="80" r="5" fill="#ffc107" stroke="#e65100" stroke-width="1"/>
  <circle cx="57.5" cy="80" r="5" fill="#ffc107" stroke="#e65100" stroke-width="1"/>
  <circle cx="67.5" cy="80" r="5" fill="#ffc107" stroke="#e65100" stroke-width="1"/>
  
  <text x="50" y="17" font-family="Arial" font-size="12" font-weight="bold" fill="#333" text-anchor="middle">TEEN PATTI</text>
</svg>